<?xml version="1.0" encoding="UTF-8" standalone="no"?>
<!-- Generator: Adobe Illustrator 19.0.0, SVG Export Plug-In . SVG Version: 6.00 Build 0)  -->

<svg
   xmlns:dc="http://purl.org/dc/elements/1.1/"
   xmlns:cc="http://creativecommons.org/ns#"
   xmlns:rdf="http://www.w3.org/1999/02/22-rdf-syntax-ns#"
   xmlns:svg="http://www.w3.org/2000/svg"
   xmlns="http://www.w3.org/2000/svg"
   xmlns:sodipodi="http://sodipodi.sourceforge.net/DTD/sodipodi-0.dtd"
   xmlns:inkscape="http://www.inkscape.org/namespaces/inkscape"
   version="1.1"
   id="Layer_1"
   x="0px"
   y="0px"
   viewBox="0 0 512 512"
   style="enable-background:new 0 0 512 512;"
   xml:space="preserve"
   sodipodi:docname="Current Courses.svg"
   inkscape:version="0.92.2 5c3e80d, 2017-08-06"><metadata
     id="metadata63"><rdf:RDF><cc:Work
         rdf:about=""><dc:format>image/svg+xml</dc:format><dc:type
           rdf:resource="http://purl.org/dc/dcmitype/StillImage" /></cc:Work></rdf:RDF></metadata><defs
     id="defs61" /><sodipodi:namedview
     pagecolor="#ffffff"
     bordercolor="#666666"
     borderopacity="1"
     objecttolerance="10"
     gridtolerance="10"
     guidetolerance="10"
     inkscape:pageopacity="0"
     inkscape:pageshadow="2"
     inkscape:window-width="1366"
     inkscape:window-height="740"
     id="namedview59"
     showgrid="false"
     inkscape:zoom="0.4609375"
     inkscape:cx="132.33898"
     inkscape:cy="256"
     inkscape:window-x="0"
     inkscape:window-y="0"
     inkscape:window-maximized="1"
     inkscape:current-layer="Layer_1" /><path
     style="fill:#f6e17a;fill-opacity:1"
     d="M256.001,512C397,512,512,397,512,256.001S397,0,256.001,0C115,0,0,115.002,0,256.001  S115,512,256.001,512z"
     id="path2" /><path
     style="fill:#5DDDD3;"
     d="M153.12,135.519v282.601l62.191-54.629V80.89h-8.092l-4.307,3.287H162.03l-0.013-3.342l-6.725,0.055  l-62.194,54.626h60.019L153.12,135.519z"
     id="path4" /><path
     style="fill:#FFFFFF;"
     d="M101.667,135.519h44.392l56.853-51.342H158.52L101.667,135.519z"
     id="path6" /><path
     style="fill:#5eb775;fill-opacity:1"
     d="M168.834,121.717l-7.365-0.113l-15.407,13.915H101.67l16.131-14.571l-7.979-0.118L93.1,135.519  v282.601h60.019l15.712-13.8V121.717H168.834z"
     id="path8" /><path
     style="fill:#ECF0F1;"
     d="M249.685,135.519v282.601l62.189-54.629V80.89v-0.003h-8.092l-4.304,3.292h-40.879l-0.013-3.342  l-6.728,0.05l-62.194,54.629h60.019h0.003V135.519z"
     id="path10" /><path
     style="fill:#FFFFFF;"
     d="M198.233,135.519h44.391l56.853-51.342h-44.391L198.233,135.519z"
     id="path12" /><path
     style="fill:#FF757C;"
     d="M265.397,121.717l-7.365-0.113l-15.407,13.915h-44.391l16.131-14.571l-7.979-0.118l-16.722,14.689  v282.601h60.019l15.712-13.8V121.717H265.397z"
     id="path14" /><path
     style="fill:#5DDDD3;"
     d="M380.942,70.85l-46.047,68.785l72.694,273.09l46.047-68.785L380.942,70.85l-7.819,2.083l-3.315,4.283  l-39.505,10.516l-0.871-3.224l-6.487,1.781l-46.049,68.785l57.997-15.439L380.942,70.85z"
     id="path16" /><path
     style="fill:#FFFFFF;"
     d="M285.174,152.871l42.899-11.418l41.732-64.237l-42.896,11.418l-41.734,64.24V152.871z"
     id="path18" /><path
     style="fill:#cb4c5f;fill-opacity:1"
     d="M346.529,122.255l-7.148,1.789l-11.308,17.409l-42.896,11.418l11.843-18.227l-7.74,1.936  l-12.381,18.497l72.694,273.09l58-15.439l11.633-17.375l-72.694-273.095L346.529,122.255z"
     id="path20" /><g
     id="g26"><path
       style="fill:#FFFFFF;"
       d="M394.411,146.759l-3.651-13.894l-25.732,42.073l3.649,13.894l25.734-42.075V146.759z"
       id="path22" /><path
       style="fill:#FFFFFF;"
       d="M380.512,138.869l-1.938-9.028l-17.367,28.399l1.941,9.026l17.367-28.396H380.512z"
       id="path24" /></g><g
     id="g28" /><g
     id="g30" /><g
     id="g32" /><g
     id="g34" /><g
     id="g36" /><g
     id="g38" /><g
     id="g40" /><g
     id="g42" /><g
     id="g44" /><g
     id="g46" /><g
     id="g48" /><g
     id="g50" /><g
     id="g52" /><g
     id="g54" /><g
     id="g56" /></svg>