<?xml version="1.0" encoding="UTF-8" standalone="no"?>
<!-- Created with Inkscape (http://www.inkscape.org/) -->

<svg
   xmlns:dc="http://purl.org/dc/elements/1.1/"
   xmlns:cc="http://creativecommons.org/ns#"
   xmlns:rdf="http://www.w3.org/1999/02/22-rdf-syntax-ns#"
   xmlns:svg="http://www.w3.org/2000/svg"
   xmlns="http://www.w3.org/2000/svg"
   xmlns:sodipodi="http://sodipodi.sourceforge.net/DTD/sodipodi-0.dtd"
   xmlns:inkscape="http://www.inkscape.org/namespaces/inkscape"
   version="1.1"
   id="svg2"
   width="599.487"
   height="573.11719"
   viewBox="0 0 599.487 573.11719"
   sodipodi:docname="Clouds.svg"
   inkscape:version="0.92.2 5c3e80d, 2017-08-06">
  <metadata
     id="metadata8">
    <rdf:RDF>
      <cc:Work
         rdf:about="">
        <dc:format>image/svg+xml</dc:format>
        <dc:type
           rdf:resource="http://purl.org/dc/dcmitype/StillImage" />
        <dc:title />
      </cc:Work>
    </rdf:RDF>
  </metadata>
  <defs
     id="defs6" />
  <sodipodi:namedview
     pagecolor="#ffffff"
     bordercolor="#666666"
     borderopacity="1"
     objecttolerance="10"
     gridtolerance="10"
     guidetolerance="10"
     inkscape:pageopacity="0"
     inkscape:pageshadow="2"
     inkscape:window-width="1366"
     inkscape:window-height="743"
     id="namedview4"
     showgrid="false"
     inkscape:zoom="0.56573228"
     inkscape:cx="512.42352"
     inkscape:cy="259.14839"
     inkscape:window-x="0"
     inkscape:window-y="0"
     inkscape:window-maximized="1"
     inkscape:current-layer="svg2" />
  <circle
     style="opacity:1;fill:#ebf638;fill-opacity:1;stroke-width:1.03719544"
     id="path827"
     cx="305.68005"
     cy="281.57809"
     r="280.93338" />
  <rect
     style="opacity:1;fill:#34345b;fill-opacity:1;stroke-width:0.94550294"
     id="rect1540-6"
     width="134.36853"
     height="302.32913"
     x="73.755325"
     y="179.06326"
     rx="14.222223"
     ry="12.521739" />
  <path
     inkscape:connector-curvature="0"
     class="cls-1"
     d="m 422.07231,437.29285 a 67.768279,66.429491 0 0 1 58.41433,68.86213 c 0,30.12717 -17.18068,65.68098 -58.41433,65.68098 H 87.430628 C 23.289383,571.83596 0,528.79714 0,484.44843 c 0,-74.85012 84.376288,-76.90851 84.376288,-76.90851 0,0 6.87228,-81.21238 80.558342,-97.67942 a 107.47475,105.35156 0 0 1 120.64663,45.28432 100.98428,98.989299 0 0 1 85.33077,-2.994 86.094347,84.393523 0 0 1 51.16028,85.14203 z"
     id="path8"
     style="fill:#bdc2d1;fill-opacity:1;stroke-width:18.90015411" />
  <rect
     style="opacity:1;fill:#3a425f;fill-opacity:1;stroke-width:0.96695822"
     id="rect1540"
     width="132.26901"
     height="321.2247"
     x="397.31451"
     y="161.47479"
     rx="11.25"
     ry="10" />
  <rect
     style="opacity:1;fill:#3a425f;fill-opacity:1;stroke-width:1.04825842"
     id="rect1540-3"
     width="134.36852"
     height="371.61292"
     x="235.15491"
     y="105.93731"
     rx="10.847458"
     ry="11.0625" />
  <path
     style="fill:#ffffff;fill-opacity:1;stroke-width:1.20204246"
     d="m 92.792838,568.82075 c 43.078702,-8.63652 72.877812,-50.41139 73.017052,-92.73267 4.2846,-30.31956 12.35754,-63.99717 38.02956,-83.88563 23.11281,-20.96835 55.678,-26.58171 86.0525,-23.98443 10.69369,-17.07803 22.90104,-35.2953 41.2255,-44.76165 19.09561,-10.30162 39.80925,-18.90616 61.97868,-19.72367 45.36384,-4.05291 90.67793,20.7129 112.54331,59.89582 8.09715,13.54145 11.97778,28.85584 15.73577,43.97976 30.12571,3.56699 59.36739,20.91419 71.10058,49.3959 18.31063,39.05633 -0.58927,90.11298 -41.04134,107.10619 -10.7928,5.41569 -22.35345,8.25664 -34.43012,7.04411 -145.03532,0.16156 -290.07065,0.32315 -435.105992,0.48472 3.6315,-0.93949 7.263,-1.87896 10.8945,-2.81845 z"
     id="path825"
     inkscape:connector-curvature="0" />
  <rect
     style="opacity:1;fill:#ffff64;fill-opacity:1"
     id="rect1575"
     width="14.696555"
     height="46.189175"
     x="102.6869"
     y="203.85312" />
  <rect
     style="opacity:1;fill:#ffff64;fill-opacity:1"
     id="rect1575-6"
     width="14.696555"
     height="46.189175"
     x="328.28452"
     y="199.35559" />
  <rect
     style="opacity:1;fill:#ffff64;fill-opacity:1;stroke-width:0.9770084"
     id="rect1575-2"
     width="14.696556"
     height="44.089672"
     x="273.89642"
     y="-310.3194"
     transform="rotate(90)" />
  <rect
     style="opacity:1;fill:#ffff64;fill-opacity:1;stroke-width:1.12815201"
     id="rect1575-9"
     width="14.696555"
     height="58.786221"
     x="267.49829"
     y="137.46494" />
  <rect
     style="opacity:1;fill:#ffff64;fill-opacity:1"
     id="rect1575-1"
     width="14.696555"
     height="46.189175"
     x="197.50977"
     y="-476.49887"
     transform="rotate(90)" />
  <rect
     style="opacity:1;fill:#ffff64;fill-opacity:1;stroke-width:0.77903348"
     id="rect1575-27"
     width="18.895571"
     height="21.802582"
     x="431.45895"
     y="233.54315" />
  <rect
     style="opacity:1;fill:#ffff64;fill-opacity:1;stroke-width:0.80178368"
     id="rect1575-0"
     width="23.094587"
     height="18.895573"
     x="479.44913"
     y="275.84329" />
  <rect
     style="opacity:1;fill:#ffff64;fill-opacity:1;stroke-width:0.85163069"
     id="rect1575-93"
     width="21.318081"
     height="23.094587"
     x="152.19991"
     y="209.0374" />
  <rect
     style="opacity:1;fill:#ffff64;fill-opacity:1;stroke-width:0.97064334"
     id="rect1575-60"
     width="43.517075"
     height="14.696554"
     x="101.53766"
     y="285.32608" />
  <rect
     style="opacity:1;fill:#ffff64;fill-opacity:1;stroke-width:0.88640529"
     id="rect1575-2-2"
     width="23.094587"
     height="23.094593"
     x="141.37529"
     y="-342.97122"
     transform="rotate(90)" />
</svg>
