<?xml version="1.0" encoding="UTF-8" standalone="no"?>
<svg
   xmlns:dc="http://purl.org/dc/elements/1.1/"
   xmlns:cc="http://creativecommons.org/ns#"
   xmlns:rdf="http://www.w3.org/1999/02/22-rdf-syntax-ns#"
   xmlns:svg="http://www.w3.org/2000/svg"
   xmlns="http://www.w3.org/2000/svg"
   xmlns:sodipodi="http://sodipodi.sourceforge.net/DTD/sodipodi-0.dtd"
   xmlns:inkscape="http://www.inkscape.org/namespaces/inkscape"
   enable-background="new 0 0 300 300"
   height="300px"
   id="Layer_1"
   version="1.1"
   viewBox="0 0 300 300"
   width="300px"
   xml:space="preserve"
   sodipodi:docname="Entertainment.svg"
   inkscape:version="0.92.2 5c3e80d, 2017-08-06"><metadata
     id="metadata19"><rdf:RDF><cc:Work
         rdf:about=""><dc:format>image/svg+xml</dc:format><dc:type
           rdf:resource="http://purl.org/dc/dcmitype/StillImage" /></cc:Work></rdf:RDF></metadata><defs
     id="defs17" /><sodipodi:namedview
     pagecolor="#ffffff"
     bordercolor="#666666"
     borderopacity="1"
     objecttolerance="10"
     gridtolerance="10"
     guidetolerance="10"
     inkscape:pageopacity="0"
     inkscape:pageshadow="2"
     inkscape:window-width="1366"
     inkscape:window-height="743"
     id="namedview15"
     showgrid="false"
     inkscape:zoom="1.7146875"
     inkscape:cx="150"
     inkscape:cy="150"
     inkscape:window-x="0"
     inkscape:window-y="0"
     inkscape:window-maximized="1"
     inkscape:current-layer="Layer_1" /><path
     d="M 285.425,40.221966 H 16.183 c -6.218,0 -11.258,4.922 -11.258,10.992 V 205.10897 H 296.682 V 51.213966 c 10e-4,-6.07 -5.041,-10.992 -11.257,-10.992 z"
     id="path2"
     inkscape:connector-curvature="0"
     style="fill:#29313f" /><path
     d="m 4.925,205.10797 v 16.03 c 0,6.07 5.04,10.992 11.258,10.992 h 269.242 c 6.216,0 11.258,-4.922 11.258,-10.992 v -16.03 z"
     id="path4"
     inkscape:connector-curvature="0"
     style="fill:#dbdfe2" /><path
     d="m 187.021,235.36197 c -0.076,-1.362 -0.122,-2.469 -0.15,-3.231 h -72.135 c -0.039,1.044 -0.112,2.736 -0.246,4.837 l -4.901,26.769 h -10.16 v 6.412 h 102.75 v -6.412 h -9.961 z"
     id="path6"
     inkscape:connector-curvature="0"
     style="fill:#d0d1d1" /><g
     id="g10"
     transform="translate(0,5.8319665)"><rect
       height="139.84801"
       width="266.41599"
       x="17.596001"
       y="47.52"
       id="rect8"
       style="fill:#faa4ff" /></g><circle
     cx="150.804"
     cy="218.61996"
     r="7.3629999"
     id="circle12"
     style="fill:#a7a9ac" /></svg>