<?xml version="1.0" encoding="UTF-8" standalone="no"?>
<!-- Generator: Adobe Illustrator 16.0.0, SVG Export Plug-In . SVG Version: 6.00 Build 0)  -->

<svg
   xmlns:dc="http://purl.org/dc/elements/1.1/"
   xmlns:cc="http://creativecommons.org/ns#"
   xmlns:rdf="http://www.w3.org/1999/02/22-rdf-syntax-ns#"
   xmlns:svg="http://www.w3.org/2000/svg"
   xmlns="http://www.w3.org/2000/svg"
   xmlns:sodipodi="http://sodipodi.sourceforge.net/DTD/sodipodi-0.dtd"
   xmlns:inkscape="http://www.inkscape.org/namespaces/inkscape"
   version="1.1"
   id="Capa_1"
   x="0px"
   y="0px"
   width="1020.8648"
   height="1020.8648"
   viewBox="0 0 1020.8648 1020.8648"
   enable-background="new 0 0 1200 1200"
   xml:space="preserve"
   sodipodi:docname="Library.svg"
   inkscape:version="0.92.2 5c3e80d, 2017-08-06"><metadata
     id="metadata103"><rdf:RDF><cc:Work
         rdf:about=""><dc:format>image/svg+xml</dc:format><dc:type
           rdf:resource="http://purl.org/dc/dcmitype/StillImage" /><dc:title /></cc:Work></rdf:RDF></metadata><defs
     id="defs101" /><sodipodi:namedview
     pagecolor="#ffffff"
     bordercolor="#666666"
     borderopacity="1"
     objecttolerance="10"
     gridtolerance="10"
     guidetolerance="10"
     inkscape:pageopacity="0"
     inkscape:pageshadow="2"
     inkscape:window-width="1366"
     inkscape:window-height="740"
     id="namedview99"
     showgrid="false"
     inkscape:zoom="0.5225956"
     inkscape:cx="493.14167"
     inkscape:cy="504.55839"
     inkscape:window-x="0"
     inkscape:window-y="0"
     inkscape:window-maximized="1"
     inkscape:current-layer="Capa_1" /><rect
     style="fill:#62bbc9;fill-opacity:1;stroke-width:0.98344064"
     id="rect61"
     width="1022.7783"
     height="1022.7783"
     x="-1.440701e-07"
     y="0.95572263"
     rx="147.5161"
     ry="147.5161" /><g
     id="g96"
     transform="translate(-90.059868,-50.929047)"><g
       id="g44"
       sodipodi:insensitive="true"
       transform="matrix(0.97363125,0,0,0.97363125,19.247034,7.361762)"><g
         id="g8"
         style="fill:#f2f2f2"
         transform="matrix(1.0328982,0,0,0.77258559,-20.790016,196.7703)"><polygon
           points="403.095,772.693 802.639,772.693 1039.102,1025.121 166.629,1025.121 "
           id="polygon6"
           style="fill:#f2f2f2" /></g><g
         id="g42"
         transform="matrix(0.9858199,0,0,0.9858199,18.80883,32.333071)"
         style="display:inline"><g
           id="g12"><polygon
             points="451.615,930.73 495.625,828.128 710.104,828.128 754.119,930.73 "
             id="polygon10"
             style="fill:#56212d" /></g><g
           id="g16"><polygon
             points="620.844,863.217 619.309,838.902 682.178,838.902 689.576,863.217 "
             id="polygon14"
             style="fill:#ffffff" /></g><g
           id="g20"><polygon
             points="519.224,850.709 522.841,838.941 554.695,838.941 552.513,850.709 "
             id="polygon18"
             style="fill:#ffffff" /></g><g
           id="g24"><polygon
             points="550.132,863.609 552.513,850.709 585.807,850.709 585,863.609 "
             id="polygon22"
             style="fill:#ffffff" /></g><g
           id="g28"><polygon
             points="584.109,877.773 585,863.609 619.861,863.609 620.707,877.773 "
             id="polygon26"
             style="fill:#ffffff" /></g><g
           id="g32"><polygon
             points="498.966,916.729 504.49,898.75 543.645,898.75 540.32,916.729 "
             id="polygon30"
             style="fill:#ffffff" /></g><g
           id="g36"><polygon
             points="664.5,916.729 661.225,898.75 700.383,898.75 705.846,916.729 "
             id="polygon34"
             style="fill:#ffffff" /></g><g
           id="g40"><polygon
             points="510.869,877.963 515.218,863.779 550.105,863.779 547.482,877.963 "
             id="polygon38"
             style="fill:#ffffff" /></g></g></g><g
       id="g48"
       transform="matrix(0.85251147,0,0,1.2256134,43.155246,-283.34343)"><rect
         x="144.77509"
         y="1022.6689"
         width="1025.4502"
         height="62.009998"
         id="rect46"
         style="fill:#bdc6fa;stroke-width:1.08412981" /></g><g
       id="g94"
       transform="matrix(0.95155547,0,0,0.95155547,39.359633,28.330779)"
       style="display:inline"><g
         id="g52"
         style="opacity:0.3"
         sodipodi:insensitive="true"
         transform="matrix(0.98724125,0,0,0.98724125,2.7767114,12.119092)"><polyline
           points="904.715,533.792 754.119,930.73 451.615,930.73 218.017,204.447 904.646,531.436    "
           id="polyline50"
           style="fill:#ffdc5a"
           transform="matrix(1.0217266,0,0,1.0217266,-4.7283998,-1.0863329)" /></g><g
         id="g56"
         style="opacity:0.3"
         sodipodi:insensitive="true"
         transform="matrix(1.0086906,0,0,1.0086906,-1.8913599,11.04662)"><polygon
           points="335.745,567.587 495.625,828.128 716.586,828.128 674.178,423.859 "
           id="polygon54"
           style="fill:#ffdc5a" /></g><g
         id="g60"
         style="opacity:0.3"
         sodipodi:insensitive="true"
         transform="matrix(1.0086906,0,0,1.0086906,-1.8913599,11.04662)"><polygon
           points="786.99,185.036 442.031,291.026 451.615,930.73 "
           id="polygon58"
           style="fill:#ffdc5a" /></g><g
         id="g64"
         transform="matrix(1.0086906,0,0,1.0086906,-1.8913599,11.04662)"><path
           d="m 904.754,532.015 c -0.031,-0.183 -0.049,-0.366 -0.1,-0.542 0,-0.014 0,-0.024 -0.008,-0.038 L 798.367,162.907 c -0.027,-0.097 -0.08,-0.187 -0.113,-0.283 -0.072,-0.197 -0.143,-0.393 -0.24,-0.58 -0.061,-0.117 -0.145,-0.221 -0.213,-0.331 -0.102,-0.156 -0.199,-0.314 -0.318,-0.456 -0.096,-0.113 -0.205,-0.207 -0.314,-0.311 -0.119,-0.117 -0.236,-0.234 -0.375,-0.342 -0.137,-0.103 -0.289,-0.189 -0.441,-0.279 -0.102,-0.059 -0.193,-0.138 -0.303,-0.193 L 570.437,50.703 c -0.032,-0.014 -0.066,-0.018 -0.098,-0.032 -0.031,-0.017 -0.052,-0.038 -0.082,-0.051 -0.115,-0.048 -0.235,-0.07 -0.355,-0.107 -0.166,-0.059 -0.335,-0.121 -0.508,-0.158 -0.138,-0.028 -0.282,-0.042 -0.424,-0.056 -0.186,-0.021 -0.373,-0.049 -0.559,-0.049 -0.146,0 -0.29,0.018 -0.436,0.028 -0.186,0.014 -0.365,0.027 -0.551,0.068 -0.146,0.024 -0.294,0.069 -0.439,0.111 -0.182,0.052 -0.361,0.104 -0.535,0.172 -0.053,0.024 -0.105,0.031 -0.158,0.055 l -344.97,149.673 c -0.107,0.045 -0.197,0.114 -0.297,0.166 -0.148,0.073 -0.297,0.148 -0.435,0.231 -0.152,0.101 -0.297,0.201 -0.435,0.311 -0.128,0.097 -0.253,0.189 -0.37,0.297 -0.142,0.124 -0.266,0.255 -0.392,0.396 -0.101,0.114 -0.205,0.221 -0.301,0.342 -0.125,0.159 -0.234,0.331 -0.338,0.503 -0.06,0.086 -0.128,0.166 -0.18,0.262 -0.017,0.028 -0.024,0.062 -0.041,0.09 -0.097,0.187 -0.173,0.376 -0.245,0.569 -0.052,0.127 -0.11,0.248 -0.149,0.373 -0.054,0.176 -0.085,0.366 -0.123,0.548 -0.028,0.138 -0.07,0.276 -0.083,0.414 -0.021,0.166 -0.013,0.338 -0.013,0.504 -0.007,0.155 -0.022,0.311 -0.011,0.456 0.011,0.138 0.045,0.269 0.065,0.403 0.031,0.187 0.048,0.37 0.1,0.545 0.004,0.01 0.004,0.021 0.007,0.034 l 106.291,368.543 c 0.031,0.1 0.082,0.183 0.117,0.283 0.069,0.197 0.138,0.394 0.234,0.576 0.063,0.125 0.145,0.221 0.217,0.332 0.1,0.159 0.197,0.317 0.321,0.462 0.089,0.107 0.197,0.2 0.297,0.296 0.126,0.121 0.247,0.248 0.392,0.359 0.125,0.093 0.264,0.166 0.397,0.249 0.117,0.072 0.221,0.159 0.346,0.217 l 225.609,109.419 c 0.025,0.014 0.057,0.014 0.08,0.024 0.035,0.015 0.063,0.042 0.098,0.056 0.229,0.1 0.473,0.145 0.715,0.207 0.13,0.031 0.258,0.086 0.393,0.109 0.386,0.063 0.775,0.076 1.174,0.039 0.02,-0.004 0.045,0.007 0.068,0.004 v 0 h 0.004 c 0.006,0 0.01,-0.004 0.017,-0.008 0.494,-0.048 0.979,-0.186 1.449,-0.376 0.048,-0.017 0.097,-0.017 0.146,-0.038 L 901.41,537.884 c 0.277,-0.121 0.531,-0.27 0.779,-0.428 0.031,-0.021 0.066,-0.031 0.098,-0.051 0.346,-0.231 0.652,-0.504 0.938,-0.791 0.076,-0.079 0.145,-0.169 0.217,-0.251 0.229,-0.263 0.428,-0.539 0.602,-0.832 0.031,-0.056 0.08,-0.1 0.115,-0.156 0.012,-0.031 0.02,-0.062 0.037,-0.089 0.1,-0.187 0.172,-0.379 0.248,-0.573 0.049,-0.121 0.105,-0.245 0.146,-0.369 0.057,-0.18 0.084,-0.366 0.125,-0.552 0.023,-0.135 0.068,-0.276 0.084,-0.411 0.02,-0.166 0.01,-0.338 0.014,-0.504 0.002,-0.155 0.02,-0.311 0.006,-0.458 -0.006,-0.134 -0.044,-0.265 -0.065,-0.404 z"
           id="path62"
           inkscape:connector-curvature="0"
           style="fill:#ffdc5a" /></g><g
         id="g92"
         sodipodi:insensitive="true"
         transform="matrix(1.0086906,0,0,1.0086906,-1.8913599,11.04662)"><g
           id="g86"><g
             id="g68"><path
               d="m 554.835,688.24 c -0.773,0 -1.546,-0.17 -2.262,-0.508 -1.376,-0.648 -2.407,-1.859 -2.831,-3.322 L 443.465,315.885 c -0.737,-2.56 0.539,-5.272 2.985,-6.332 L 791.408,159.87 c 1.4,-0.607 2.99,-0.58 4.367,0.065 1.377,0.652 2.408,1.863 2.834,3.326 l 106.279,368.532 c 0.738,2.56 -0.539,5.272 -2.984,6.332 L 556.943,687.802 c -0.674,0.294 -1.391,0.438 -2.108,0.438 z M 454.942,317.423 558.257,675.677 893.414,530.255 790.094,171.993 Z"
               id="path66"
               inkscape:connector-curvature="0"
               style="fill:#ffffff" /></g><g
             id="g72"><path
               d="m 329.224,578.821 c -0.773,0 -1.546,-0.169 -2.261,-0.507 -1.375,-0.649 -2.408,-1.859 -2.832,-3.323 L 217.841,206.449 c -0.738,-2.56 0.539,-5.272 2.984,-6.332 L 565.798,50.441 c 1.398,-0.607 2.992,-0.58 4.369,0.069 1.376,0.648 2.407,1.86 2.833,3.323 l 106.279,368.553 c 0.74,2.561 -0.537,5.272 -2.984,6.331 L 331.33,578.382 c -0.672,0.294 -1.39,0.439 -2.106,0.439 z M 229.315,207.987 332.645,566.259 667.804,420.847 564.486,62.564 Z"
               id="path70"
               inkscape:connector-curvature="0"
               style="fill:#ffffff" /></g><g
             id="g76"><path
               d="m 793.512,170.031 c -0.775,0 -1.563,-0.169 -2.307,-0.531 L 565.597,60.07 c -2.637,-1.276 -3.735,-4.447 -2.459,-7.08 1.278,-2.635 4.451,-3.736 7.08,-2.456 l 225.61,109.43 c 2.635,1.277 3.732,4.447 2.455,7.08 -0.914,1.89 -2.804,2.987 -4.771,2.987 z"
               id="path74"
               inkscape:connector-curvature="0"
               style="fill:#ffffff" /></g><g
             id="g80"><path
               d="m 448.554,319.714 c -0.776,0 -1.563,-0.169 -2.307,-0.531 L 220.622,209.747 c -2.637,-1.276 -3.734,-4.447 -2.458,-7.08 1.274,-2.636 4.448,-3.736 7.081,-2.457 L 450.87,309.647 c 2.636,1.276 3.734,4.447 2.458,7.08 -0.916,1.89 -2.806,2.987 -4.774,2.987 z"
               id="path78"
               inkscape:connector-curvature="0"
               style="fill:#ffffff" /></g><g
             id="g84"><path
               d="m 554.832,688.24 c -0.776,0 -1.563,-0.17 -2.309,-0.531 L 326.912,578.289 c -2.636,-1.276 -3.734,-4.447 -2.458,-7.08 1.274,-2.636 4.448,-3.737 7.081,-2.457 l 225.611,109.419 c 2.637,1.277 3.733,4.447 2.457,7.08 -0.914,1.892 -2.806,2.989 -4.771,2.989 z"
               id="path82"
               inkscape:connector-curvature="0"
               style="fill:#ffffff" /></g></g><g
           id="g90"><path
             d="m 899.791,538.563 c -0.773,0 -1.563,-0.169 -2.307,-0.531 L 671.875,428.624 c -2.635,-1.276 -3.732,-4.448 -2.455,-7.08 1.275,-2.636 4.447,-3.733 7.078,-2.457 l 225.609,109.409 c 2.635,1.276 3.734,4.447 2.457,7.08 -0.914,1.89 -2.804,2.987 -4.773,2.987 z"
             id="path88"
             inkscape:connector-curvature="0"
             style="fill:#ffffff" /></g></g></g></g></svg>