<?xml version="1.0" encoding="utf-8"?>
<!-- Generator: Adobe Illustrator 19.1.0, SVG Export Plug-In . SVG Version: 6.00 Build 0)  -->
<svg version="1.0" id="Ebene_1" xmlns="http://www.w3.org/2000/svg" xmlns:xlink="http://www.w3.org/1999/xlink" x="0px" y="0px"
	 width="800px" height="800px" viewBox="0 0 800 800" style="enable-background:new 0 0 800 800;" xml:space="preserve">
<style type="text/css">
	.st0{fill:#F0F0F0;}
	.st1{fill:#AEAEAE;}
	.st2{fill:#BBBBBB;}
	.st3{fill:#333333;}
	.st4{fill:url(#SVGID_1_);}
	.st5{fill:url(#SVGID_2_);}
	.st6{fill:url(#SVGID_3_);}
	.st7{fill:#FFFFFF;}
	.st8{fill:url(#SVGID_4_);}
	.st9{fill:url(#SVGID_5_);}
	.st10{fill:url(#SVGID_6_);}
	.st11{fill:url(#SVGID_7_);}
	.st12{fill:url(#SVGID_8_);}
	.st13{fill:url(#SVGID_9_);}
	.st14{fill:url(#SVGID_10_);}
	.st15{fill:url(#SVGID_11_);}
	.st16{fill:#010202;}
	.st17{fill:url(#SVGID_12_);}
	.st18{fill:url(#SVGID_13_);}
	.st19{fill:url(#SVGID_14_);}
	.st20{fill:url(#SVGID_15_);}
	.st21{fill:url(#SVGID_16_);}
	.st22{fill:url(#SVGID_17_);}
	.st23{fill:#EB5D57;}
	.st24{fill:url(#SVGID_18_);}
	.st25{fill:url(#SVGID_19_);}
	.st26{fill:url(#SVGID_20_);}
	.st27{fill:url(#SVGID_21_);}
	.st28{fill:url(#SVGID_22_);}
	.st29{fill:url(#SVGID_23_);}
	.st30{fill:url(#SVGID_24_);}
	.st31{fill:url(#SVGID_25_);}
	.st32{fill:url(#SVGID_26_);}
	.st33{fill:url(#SVGID_27_);}
	.st34{fill:url(#SVGID_28_);}
	.st35{fill:url(#SVGID_29_);}
	.st36{fill:url(#SVGID_30_);}
	.st37{fill:url(#SVGID_31_);}
	.st38{fill:url(#SVGID_32_);}
	.st39{fill:url(#SVGID_33_);}
	.st40{fill:url(#SVGID_34_);}
	.st41{fill:url(#SVGID_35_);}
	.st42{fill:url(#SVGID_36_);}
	.st43{fill:url(#SVGID_37_);}
	.st44{fill:url(#SVGID_38_);}
	.st45{fill:url(#SVGID_39_);}
	.st46{fill:url(#SVGID_40_);}
	.st47{fill:url(#SVGID_41_);}
	.st48{fill:url(#SVGID_42_);}
	.st49{fill:url(#SVGID_43_);}
	.st50{fill:url(#SVGID_44_);}
	.st51{fill:url(#SVGID_45_);}
	.st52{fill:url(#SVGID_46_);}
	.st53{fill:url(#SVGID_47_);}
	.st54{fill:#FFFFFF;stroke:#FFFFFF;stroke-width:8;stroke-miterlimit:10;}
	.st55{fill:url(#SVGID_48_);}
	.st56{fill:url(#SVGID_49_);}
	.st57{fill:url(#SVGID_50_);}
	.st58{fill:url(#SVGID_51_);}
	.st59{fill:url(#SVGID_52_);}
	.st60{fill:url(#SVGID_53_);}
	.st61{fill:url(#SVGID_54_);}
	.st62{fill:url(#SVGID_55_);}
	.st63{fill:url(#SVGID_56_);}
	.st64{fill:url(#SVGID_57_);}
	.st65{fill:url(#SVGID_58_);}
	.st66{fill:url(#SVGID_59_);}
	.st67{fill:url(#SVGID_60_);}
	.st68{fill:url(#SVGID_61_);}
	.st69{fill:url(#SVGID_62_);}
	.st70{fill:none;}
	.st71{fill:url(#SVGID_63_);}
	.st72{fill:url(#SVGID_64_);}
	.st73{fill:url(#SVGID_65_);}
	.st74{fill:url(#SVGID_66_);}
	.st75{fill:url(#SVGID_67_);}
	.st76{fill:url(#SVGID_68_);}
	.st77{fill:url(#SVGID_69_);}
	.st78{fill:url(#SVGID_70_);}
	.st79{fill:url(#SVGID_71_);}
	.st80{fill:url(#SVGID_72_);}
	.st81{fill:#EA5D70;}
	.st82{fill:#ECF0F1;}
	.st83{fill:#BEC4C8;}
	.st84{fill:#96A5A6;}
	.st85{fill:url(#SVGID_73_);}
	.st86{fill:url(#SVGID_74_);}
	.st87{fill:#020303;}
	.st88{fill:url(#SVGID_75_);}
	.st89{fill:url(#SVGID_76_);}
	.st90{fill:url(#SVGID_77_);}
	.st91{fill:url(#SVGID_78_);}
	.st92{fill:url(#SVGID_79_);}
	.st93{fill:url(#SVGID_80_);}
</style>
<g>
	<path class="st2" d="M608.2,294.4h-138c-7.4,0-13.5-6.1-13.5-13.5v0c0-7.4,6.1-13.5,13.5-13.5h138c7.4,0,13.5,6.1,13.5,13.5v0
		C621.7,288.4,615.6,294.4,608.2,294.4z"/>
	<linearGradient id="SVGID_1_" gradientUnits="userSpaceOnUse" x1="266.6154" y1="356.5995" x2="800.6558" y2="356.5995">
		<stop  offset="0" style="stop-color:#EB5D57"/>
		<stop  offset="1" style="stop-color:#EB5D78"/>
	</linearGradient>
	<path class="st4" d="M800.7,136.7v545.7c0,16.2-13.2,29.4-29.4,29.4H296c-16.2,0-29.4-13.2-29.4-29.4V30.8
		c0-16.2,13.2-29.4,29.4-29.4h369.9"/>
	<path class="st3" d="M665.9,1.4v105.9c0,16.2,13.2,29.4,29.4,29.4h105.3L665.9,1.4z"/>
</g>
<path class="st7" d="M700.3,412H429.7c-5.9,0-10.8-6.1-10.8-13.5v0c0-7.4,4.9-13.5,10.8-13.5h270.7c5.9,0,10.8,6.1,10.8,13.5v0
	C711.1,405.9,706.3,412,700.3,412z"/>
<path class="st7" d="M700,345H429.3c-5.9,0-10.8-6.1-10.8-13.5v0c0-7.4,4.9-13.5,10.8-13.5H700c5.9,0,10.8,6.1,10.8,13.5v0
	C710.8,338.9,705.9,345,700,345z"/>
<path class="st7" d="M700,278H429.3c-5.9,0-10.8-6.1-10.8-13.5v0c0-7.4,4.9-13.5,10.8-13.5H700c5.9,0,10.8,6.1,10.8,13.5v0
	C710.8,271.9,705.9,278,700,278z"/>
<path class="st0" d="M537.2,224.9v545.7c0,16.2-13.2,29.4-29.4,29.4H32.6c-16.2,0-29.4-13.2-29.4-29.4V119
	c0-16.2,13.2-29.4,29.4-29.4h369.9"/>
<path class="st3" d="M241.8,529H131.2c-5.9,0-10.8-6.1-10.8-13.5l0,0c0-7.4,4.9-13.5,10.8-13.5h110.7c5.9,0,10.8,6.1,10.8,13.5l0,0
	C252.6,522.9,247.8,529,241.8,529z"/>
<path class="st3" d="M401.8,462H131.2c-5.9,0-10.8-6.1-10.8-13.5v0c0-7.4,4.9-13.5,10.8-13.5h270.7c5.9,0,10.8,6.1,10.8,13.5v0
	C412.6,455.9,407.8,462,401.8,462z"/>
<path class="st2" d="M402.5,89.6v105.9c0,16.2,13.2,29.4,29.4,29.4h105.3L402.5,89.6z"/>
<path class="st3" d="M401.5,395H130.8c-5.9,0-10.8-6.1-10.8-13.5v0c0-7.4,4.9-13.5,10.8-13.5h270.7c5.9,0,10.8,6.1,10.8,13.5v0
	C412.3,388.9,407.4,395,401.5,395z"/>
<path class="st3" d="M401.5,328H130.8c-5.9,0-10.8-6.1-10.8-13.5v0c0-7.4,4.9-13.5,10.8-13.5h270.7c5.9,0,10.8,6.1,10.8,13.5v0
	C412.3,321.9,407.4,328,401.5,328z"/>
</svg>
