<?xml version="1.0" encoding="UTF-8" standalone="no"?>
<svg
   xmlns:dc="http://purl.org/dc/elements/1.1/"
   xmlns:cc="http://creativecommons.org/ns#"
   xmlns:rdf="http://www.w3.org/1999/02/22-rdf-syntax-ns#"
   xmlns:svg="http://www.w3.org/2000/svg"
   xmlns="http://www.w3.org/2000/svg"
   xmlns:sodipodi="http://sodipodi.sourceforge.net/DTD/sodipodi-0.dtd"
   xmlns:inkscape="http://www.inkscape.org/namespaces/inkscape"
   version="1.1"
   x="0px"
   y="0px"
   viewBox="5 5 105 105"
   style="enable-background:new 5 5 105 105;"
   xml:space="preserve"
   id="svg8"
   sodipodi:docname="stackoverflow.com.svg"
   inkscape:version="0.92.2 5c3e80d, 2017-08-06"><metadata
     id="metadata14"><rdf:RDF><cc:Work
         rdf:about=""><dc:format>image/svg+xml</dc:format><dc:type
           rdf:resource="http://purl.org/dc/dcmitype/StillImage" /></cc:Work></rdf:RDF></metadata><defs
     id="defs12" /><sodipodi:namedview
     pagecolor="#ffffff"
     bordercolor="#666666"
     borderopacity="1"
     objecttolerance="10"
     gridtolerance="10"
     guidetolerance="10"
     inkscape:pageopacity="0"
     inkscape:pageshadow="2"
     inkscape:window-width="1366"
     inkscape:window-height="743"
     id="namedview10"
     showgrid="false"
     inkscape:zoom="4.8991071"
     inkscape:cx="44.335247"
     inkscape:cy="51.068092"
     inkscape:window-x="0"
     inkscape:window-y="0"
     inkscape:window-maximized="1"
     inkscape:current-layer="svg8" /><style
     type="text/css"
     id="style2">
	.st0{fill:#BCBBBB;}
	.st1{fill:#F48023;}
</style><polygon
     class="st0"
     points="22.6,101.5 22.6,70.6 30.3,70.6 30.3,93.8 84.4,93.8 84.4,70.6 92.1,70.6 92.1,101.5 "
     id="polygon4"
     transform="matrix(1.13743,0,0,1.13743,-9.0696754,-8.6420573)"
     style="fill:#bcbbbb" /><path
     class="st1"
     d="m 35.062608,69.158155 42.994855,8.985698 1.819887,-8.64447 -42.994854,-8.985696 z m 5.687148,-20.47374 39.810053,18.54011 3.639777,-7.96201 L 44.389534,40.608661 Z M 51.782827,29.120618 85.564499,57.215141 91.137909,50.504303 57.356237,22.409783 Z M 73.621485,8.3056497 66.56942,13.537828 92.73031,48.798159 99.782372,43.56598 Z M 34.152665,89.176923 H 78.057463 V 80.418712 H 34.152665 Z"
     id="path6"
     inkscape:connector-curvature="0"
     style="fill:#f48023;stroke-width:1.13743007" /></svg>