<?xml version="1.0" encoding="UTF-8" standalone="no"?>
<svg
   xmlns:dc="http://purl.org/dc/elements/1.1/"
   xmlns:cc="http://creativecommons.org/ns#"
   xmlns:rdf="http://www.w3.org/1999/02/22-rdf-syntax-ns#"
   xmlns:svg="http://www.w3.org/2000/svg"
   xmlns="http://www.w3.org/2000/svg"
   xmlns:sodipodi="http://sodipodi.sourceforge.net/DTD/sodipodi-0.dtd"
   xmlns:inkscape="http://www.inkscape.org/namespaces/inkscape"
   enable-background="new 0 0 512 512"
   height="512px"
   id="Layer_1"
   version="1.1"
   viewBox="0 0 512 512"
   width="512px"
   xml:space="preserve"
   sodipodi:docname="Web Services.svg"
   inkscape:version="0.92.2 5c3e80d, 2017-08-06"><metadata
     id="metadata25"><rdf:RDF><cc:Work
         rdf:about=""><dc:format>image/svg+xml</dc:format><dc:type
           rdf:resource="http://purl.org/dc/dcmitype/StillImage" /></cc:Work></rdf:RDF></metadata><defs
     id="defs23" /><sodipodi:namedview
     pagecolor="#ffffff"
     bordercolor="#666666"
     borderopacity="1"
     objecttolerance="10"
     gridtolerance="10"
     guidetolerance="10"
     inkscape:pageopacity="0"
     inkscape:pageshadow="2"
     inkscape:window-width="1366"
     inkscape:window-height="740"
     id="namedview21"
     showgrid="false"
     inkscape:zoom="0.4609375"
     inkscape:cx="390.50847"
     inkscape:cy="256"
     inkscape:window-x="0"
     inkscape:window-y="0"
     inkscape:window-maximized="1"
     inkscape:current-layer="Layer_1"
     inkscape:object-nodes="false" /><circle
     cx="256.333"
     cy="255.42"
     fill="#82D0D8"
     r="256"
     id="circle2"
     style="fill:#828ed8;fill-opacity:1" /><path
     d="m 407.15088,211.64813 c -8.20539,0 -16.03432,1.44931 -23.30701,3.97661 -6.81198,-54.6558 -56.14766,-97.07078 -116.0339,-97.07078 -44.56887,0 -83.30003,23.49253 -103.01115,58.03575 -0.11125,-0.0465 -0.22586,-0.0856 -0.33711,-0.13117 -8.78522,15.46844 -13.78014,33.13201 -13.78014,51.89894 0,4.74992 0.35509,9.41838 0.97426,14.00856 -3.1835,-9.78441 -4.90728,-20.16971 -4.90728,-30.93477 0,-13.56742 2.75087,-26.52232 7.70647,-38.4352 -8.229,-2.35592 -16.9378,-3.66347 -25.98597,-3.66347 -49.649187,0 -89.897359,38.02792 -89.897359,84.7686 0,46.73961 40.248172,84.76752 89.897359,84.76752 1.93055,0 288.89417,0 288.89417,0 32.37766,-5.28944 57.21068,-31.83185 57.21068,-63.61081 0,-35.05525 -30.18641,-63.60978 -67.42302,-63.60978 z"
     id="path4"
     inkscape:connector-curvature="0"
     style="fill:#ffffff;stroke-width:1.09030592" /><g
     id="g12"><path
       d="M301.984,188.59l0.309,0.817l5.356,14.152c1.215-0.058,2.411-0.187,3.644-0.187   c2.376,0,4.712,0.155,7.033,0.36l5.543-14.645c0.717-1.894,2.929-3.102,4.915-2.683l18.98,5.371   c1.909,0.688,3.202,2.886,2.873,4.884l-2.588,15.7c2.996,1.556,5.876,3.271,8.634,5.176l12.162-9.936   c1.571-1.283,4.094-1.228,5.607,0.121l13.878,14.207c1.313,1.544,1.334,4.09,0.048,5.656l-10.065,12.254   c1.734,2.671,3.28,5.464,4.69,8.343l15.708-2.574c2.003-0.328,4.174,0.973,4.823,2.891l5.023,19.262   c0.375,1.99-0.872,4.202-2.771,4.917l-14.909,5.609c0.09,1.56,0.238,3.106,0.238,4.687c0,1.582-0.148,3.128-0.238,4.684   l14.909,5.61c1.9,0.715,3.147,2.927,2.771,4.917l-5.023,19.265c-0.625,1.846-2.658,3.084-4.597,2.885   c-0.006,0.014-0.01,0.028-0.015,0.041l-15.923-2.608c-1.406,2.879-2.952,5.676-4.686,8.347l10.065,12.248l0.296,0.361   c-0.019,0.026-0.04,0.05-0.059,0.077c0.983,1.572,0.919,3.8-0.285,5.217l-13.878,14.207c-1.33,1.186-3.406,1.309-4.964,0.466   c-0.037,0.029-0.072,0.062-0.109,0.091l-12.697-10.376c-2.758,1.905-5.638,3.624-8.634,5.177c0,0,2.614,16.5,2.566,16.522   c-0.079,1.746-1.2,3.47-2.851,4.064l-18.979,5.372c-1.679,0.354-3.451-0.457-4.397-1.817c-0.061,0.008-6.061-15.507-6.061-15.507   c-2.321,0.201-4.658,0.352-7.033,0.352c-1.233,0-2.43-0.126-3.641-0.183c0,0-6.076,15.798-6.123,15.793   c-0.884,1.404-2.72,2.283-4.477,1.965l-18.96-4.723c-1.789-0.586-3.025-2.247-2.983-3.819c-0.026-0.011,2.627-16.482,2.627-16.482   c-3.443-1.596-6.77-3.394-9.925-5.45l-12.825,10.48v0.001l-0.137,0.111c-0.012-0.009-0.023-0.019-0.035-0.028   c-1.287,0.898-3.448,0.669-4.936-0.591l-13.897-13.489c-1.357-1.506-1.637-3.748-0.624-4.981c0.008-0.009,0.019-0.01,0.027-0.019   c-0.002-0.002-0.004-0.005-0.004-0.005l10.441-12.709c-2.25-3.214-4.225-6.614-5.988-10.144l-16.235,2.655   c-0.006-0.013-0.01-0.026-0.015-0.039c-0.056,0.013-0.093,0.057-0.151,0.066c-1.642,0.269-3.525-1.078-4.184-2.993l-5.006-18.573   c-0.393-1.986,0.621-4.114,2.254-4.728c0.058-0.022,0.166-0.048,0.165-0.062l15.108-5.681c-0.148-1.977-0.303-3.954-0.303-5.967   c0-2.013,0.155-3.987,0.303-5.964c0,0-14.897-5.629-14.895-5.641c-0.054-0.017-0.106-0.002-0.16-0.022   c-1.752-0.659-2.865-2.824-2.472-4.81l5.006-18.577c0.659-1.915,2.837-3.213,4.841-2.886l0.23,0.038l15.514,2.54   c1.763-3.53,3.738-6.93,5.988-10.14l-9.757-11.876l-0.21-0.256c-1.287-1.566-1.23-4.08,0.127-5.587l13.897-13.492   c1.548-1.31,4.099-1.332,5.67-0.05l0.422,0.345l11.842,9.674c3.162-2.049,6.482-3.854,9.925-5.45l-2.442-14.845l-0.111-0.675   c-0.329-1.998,0.981-4.149,2.91-4.78l18.956-4.717C299.047,185.442,301.268,186.696,301.984,188.59z"
       id="path6"
       fill="#1B7C96" /><circle
       cx="311.375"
       cy="281.533"
       r="46.738"
       id="circle8"
       fill="#FFFFFF" /><circle
       cx="311.375"
       cy="281.533"
       r="36"
       id="circle10"
       fill="#FF5F5F" /></g><g
     id="g18"><path
       d="M226.708,344.987l-8.944,7.621c0.337,1.145,0.68,2.287,0.937,3.472c0.315,1.456,0.536,2.909,0.716,4.36   l11.191,3.209c1.332,0.382,2.378,1.827,2.325,3.212l-1.318,12.275c-0.248,1.363-1.581,2.566-2.962,2.673l-11.729,0.909   c-0.873,2.436-1.925,4.791-3.166,7.048l7.186,9.197c0.853,1.092,0.854,2.879,0.002,3.971l-8.326,9.235   c-0.997,0.962-2.779,1.156-3.959,0.43l-9.981-6.133c-2.061,1.416-4.26,2.658-6.557,3.754l0.409,11.698   c0.049,1.385-0.988,2.875-2.303,3.312c0,0-3.083,1.024-5.964,1.648c-2.928,0.634-6.249,0.982-6.249,0.982   c-1.378,0.144-2.938-0.786-3.467-2.066l-4.473-10.837c-2.53-0.055-5.032-0.275-7.48-0.714l-6.543,9.701   c-0.775,1.149-2.476,1.707-3.781,1.242l-11.418-4.996c-1.227-0.645-1.964-2.274-1.639-3.621l2.741-11.356   c-2.03-1.525-3.93-3.215-5.705-5.046l-11.053,4.023c-1.302,0.474-3.013-0.07-3.802-1.209l-6.294-10.676   c-0.62-1.239-0.264-2.988,0.791-3.887l8.869-7.556c-0.427-1.374-0.823-2.765-1.133-4.197c-0.252-1.162-0.407-2.321-0.572-3.479   l-11.304-3.241c-1.332-0.382-2.395-1.827-2.362-3.213l1.132-12.242c0.227-1.367,1.543-2.573,2.924-2.679l11.654-0.903   c0.87-2.582,1.927-5.085,3.207-7.473l-7.21-9.228c-0.853-1.092-0.863-2.886-0.021-3.987l8.08-9.152   c0.986-0.974,2.758-1.177,3.939-0.451l9.915,6.092c2.25-1.599,4.675-2.982,7.215-4.192l-0.409-11.695   c-0.048-1.385,0.988-2.875,2.303-3.311c0,0,3.072-1.02,5.947-1.642c2.829-0.613,5.956-0.949,5.956-0.949   c1.378-0.148,2.937,0.778,3.466,2.059l4.458,10.8c2.829,0.043,5.625,0.293,8.351,0.816l6.509-9.65   c0.775-1.149,2.473-1.699,3.774-1.222l11.124,4.958c1.223,0.652,1.957,2.287,1.632,3.634l-2.746,11.375   c2.187,1.661,4.217,3.521,6.103,5.538l10.987-3.999c1.302-0.474,2.999,0.079,3.772,1.229l6.078,10.632   C228.131,342.332,227.762,344.088,226.708,344.987z"
       id="path14"
       fill="#004259" /><circle
       cx="170.549"
       cy="366.433"
       r="28.404"
       id="circle16"
       fill="#30A2B5" /></g></svg>