<?xml version="1.0" encoding="UTF-8" standalone="no"?>
<!-- Created with Inkscape (http://www.inkscape.org/) -->

<svg
   xmlns:dc="http://purl.org/dc/elements/1.1/"
   xmlns:cc="http://creativecommons.org/ns#"
   xmlns:rdf="http://www.w3.org/1999/02/22-rdf-syntax-ns#"
   xmlns:svg="http://www.w3.org/2000/svg"
   xmlns="http://www.w3.org/2000/svg"
   xmlns:sodipodi="http://sodipodi.sourceforge.net/DTD/sodipodi-0.dtd"
   xmlns:inkscape="http://www.inkscape.org/namespaces/inkscape"
   version="1.1"
   id="svg2"
   xml:space="preserve"
   width="518.05719"
   height="471.44913"
   viewBox="0 0 518.05719 471.44913"
   sodipodi:docname="Web Services.svg"
   inkscape:version="0.92.2 5c3e80d, 2017-08-06"><metadata
     id="metadata8"><rdf:RDF><cc:Work
         rdf:about=""><dc:format>image/svg+xml</dc:format><dc:type
           rdf:resource="http://purl.org/dc/dcmitype/StillImage" /></cc:Work></rdf:RDF></metadata><defs
     id="defs6"><radialGradient
       fx="0"
       fy="0"
       cx="0"
       cy="0"
       r="1"
       gradientUnits="userSpaceOnUse"
       gradientTransform="matrix(6386.05,0,0,-6386.05,6000,6000)"
       spreadMethod="pad"
       id="radialGradient18"><stop
         style="stop-opacity:1;stop-color:#ffffff"
         offset="0"
         id="stop14" /><stop
         style="stop-opacity:1;stop-color:#e4e5e5"
         offset="1"
         id="stop16" /></radialGradient></defs><sodipodi:namedview
     pagecolor="#ffffff"
     bordercolor="#666666"
     borderopacity="1"
     objecttolerance="10"
     gridtolerance="10"
     guidetolerance="10"
     inkscape:pageopacity="0"
     inkscape:pageshadow="2"
     inkscape:window-width="1366"
     inkscape:window-height="743"
     id="namedview4"
     showgrid="false"
     inkscape:zoom="0.45467518"
     inkscape:cx="466.51153"
     inkscape:cy="48.570116"
     inkscape:window-x="0"
     inkscape:window-y="0"
     inkscape:window-maximized="1"
     inkscape:current-layer="g12" /><g
     id="g10"
     inkscape:groupmode="layer"
     inkscape:label="ink_ext_XXXXXX"
     transform="matrix(1.3333333,0,0,-1.3333333,-576.68361,1153.831)"><g
       id="g12"
       transform="scale(0.1)"><path
         d="m 5693.2795,7854.6133 0.8689,-460.3892 c -39.9507,-15.5454 -71.4311,-47.1749 -86.8857,-87.1341 l -254.9895,-0.4813 -0.2615,138.5197 c 157.1747,61.2768 112.2344,294.5024 -55.4453,294.1859 -167.9597,-0.317 -211.339,-233.8793 -54.2945,-294.393 l 0.2615,-138.5197 -740.6987,-1.3981 c -9.1367,390.3035 355.1242,649.8014 674.339,504.4737 -50.6244,389.0451 216.4314,730.5998 515.9975,632.295 0.3699,-195.9596 0.7372,-390.5593 1.1083,-587.1589 z m 318.7665,49.8117 c 0.2782,-147.4097 1.6268,-861.9084 1.8358,-972.6082 l -710.8988,-1.3418 c -61.106,156.8149 -294.5028,112.5143 -294.1858,-55.4354 0.3174,-168.1897 234.0186,-211.0087 294.393,-54.3144 l 710.8987,1.3418 0.8596,-455.4192 0.6742,-357.1894 -258.8395,-0.4885 c -22.1576,56.9682 -77.224,97.4044 -142.0039,97.2821 -84.1899,-0.1589 -152.3109,-68.5276 -152.152,-152.7274 0.3175,-168.1997 234.1087,-211.0485 294.363,-54.3045 l 258.8395,0.4885 0.095,-50.2499 c 0.5778,-306.1495 -187.9317,-555.5657 -420.2013,-556.0041 -190.4997,-0.3596 -351.4364,167.297 -403.6888,396.3488 l -1.3165,697.4787 313.1794,0.5911 c 22.1975,-56.9382 77.264,-97.4143 142.0539,-97.292 84.1999,0.1589 152.3009,68.5376 152.142,152.7374 -0.1589,84.1899 -68.5176,152.291 -152.7174,152.132 -64.7899,-0.1223 -119.7032,-40.786 -141.6856,-97.8376 -98.4298,-0.1857 -336.7394,-0.6355 -422.9392,-0.7982 0.3711,-196.6097 0.7383,-391.1694 1.1081,-587.109 -309.1113,-63.1636 -578.2435,197.3389 -578.8556,521.6284 -0.3485,184.6796 88.2212,349.1271 216.514,443.1594 -96.5227,70.198 -174.4964,183.331 -204.7359,320.8041 l 222.6696,0.4203 1.4439,-765.0086 c -156.885,-61.0662 -112.5243,-294.4929 55.4154,-294.1759 168.1797,0.3174 211.0486,234.0387 54.3244,294.383 l -1.4439,765.0087 c 140.4098,0.265 608.1589,1.1478 760.2786,1.435 61.2062,-156.8348 294.573,-112.5242 294.256,55.4055 -0.1223,64.7998 -40.826,119.7031 -97.8376,141.6655 -0.1886,99.9199 -1.6741,886.9485 -1.8657,988.5083 125.0218,-96.2042 209.6382,-274.3848 210.0235,-478.5145 z m -1009.1894,120.6054 c -552.3249,17.9576 -887.3613,-678.316 -529.7385,-1151.0019 -353.1624,-470.5974 -22.4332,-1169.1844 534.0796,-1148.984 48.0531,-340.6899 292.8876,-607.7382 588.8571,-607.1796 329.1094,0.6212 596.2002,328.9659 595.4396,731.9252 -0.1462,77.4498 -0.074,39.1499 -0.302,159.9997 -0.5064,268.2695 -3.4645,1835.5267 -3.5767,1894.9666 -0.5878,311.3995 -161.2492,576.9067 -385.9771,681.5527 -359.9757,166.9109 -738.1385,-118.0634 -798.782,-561.2787"
         style="fill:#ececec;fill-opacity:1;fill-rule:nonzero;stroke:none"
         id="path70"
         inkscape:connector-curvature="0" /><path
         d="m 6842.4041,5916.9832 -0.8689,460.3892 c 39.9507,15.5454 71.4311,47.175 86.8857,87.1341 l 254.9895,0.4815 0.2617,-138.5196 c -157.1746,-61.2768 -112.2343,-294.5025 55.4453,-294.186 167.9597,0.3173 211.339,233.8794 54.2945,294.393 l -0.2618,138.5198 740.6987,1.3981 c 9.1367,-390.3036 -355.1242,-649.8014 -674.339,-504.4737 50.6244,-389.0451 -216.4314,-730.5998 -515.9975,-632.295 -0.3697,195.9596 -0.7372,390.5593 -1.1083,587.1588 z m -318.7665,-49.8117 c -0.2782,147.4097 -1.6268,861.9084 -1.8358,972.6083 l 710.8988,1.3417 c 61.106,-156.8149 294.5028,-112.5142 294.1858,55.4355 -0.3174,168.1896 -234.0186,211.0086 -294.393,54.3144 l -710.8987,-1.3419 -0.8596,455.4192 -0.6742,357.1894 258.8394,0.4883 c 22.1577,-56.9682 77.224,-97.4045 142.0039,-97.2822 84.1899,0.159 152.3109,68.5276 152.1521,152.7274 -0.3173,168.1998 -234.1088,211.0485 -294.363,54.3045 l -258.8396,-0.4882 -0.095,50.2498 c -0.5775,306.1496 187.9317,555.5658 420.2013,556.0041 190.4996,0.3593 351.4363,-167.2969 403.6887,-396.3487 l 1.3165,-697.4787 -313.1794,-0.591 c -22.1975,56.9382 -77.264,97.4142 -142.0539,97.2919 -84.1998,-0.159 -152.3009,-68.5375 -152.142,-152.7373 0.159,-84.1899 68.5176,-152.2911 152.7174,-152.1321 64.7899,0.1223 119.7033,40.786 141.6856,97.8376 98.4298,0.186 336.7394,0.6353 422.9392,0.7982 -0.3713,196.6098 -0.738,391.1694 -1.1081,587.1091 309.1113,63.1635 578.2435,-197.3389 578.8556,-521.6284 0.3486,-184.6797 -88.2212,-349.1271 -216.514,-443.1594 96.5227,-70.198 174.4964,-183.331 204.7359,-320.8042 l -222.6696,-0.42 -1.4439,765.0086 c 156.885,61.0662 112.5243,294.4929 -55.4154,294.176 -168.1797,-0.3173 -211.0486,-234.0387 -54.3244,-294.3831 l 1.4439,-765.0087 c -140.4098,-0.2647 -608.1588,-1.1478 -760.2786,-1.435 -61.2062,156.8349 -294.573,112.5243 -294.2559,-55.4055 0.1222,-64.7997 40.8259,-119.703 97.8375,-141.6654 0.1883,-99.92 1.6741,-886.9486 1.8657,-988.5084 -125.0217,96.2042 -209.6382,274.3848 -210.0234,478.5145 z M 7532.827,5746.5661 c 552.3249,-17.9576 887.3613,678.3161 529.7385,1151.0019 353.1624,470.5974 22.4332,1169.1844 -534.0796,1148.984 -48.0531,340.6899 -292.8876,607.7382 -588.8571,607.1796 -329.1094,-0.621 -596.2002,-328.9659 -595.4396,-731.9251 0.1463,-77.4498 0.075,-39.15 0.3023,-159.9997 0.5062,-268.2696 3.4645,-1835.5267 3.5767,-1894.9667 0.5875,-311.3995 161.2489,-576.9067 385.9768,-681.5527 359.9757,-166.9109 738.1385,118.0634 798.782,561.2787"
         style="fill:#fac72e;fill-opacity:1;fill-rule:nonzero;stroke:none;stroke-width:0.99999994"
         id="path70-3"
         inkscape:connector-curvature="0" /></g></g></svg>