<?xml version="1.0" encoding="UTF-8" standalone="no"?>
<svg
   xmlns:dc="http://purl.org/dc/elements/1.1/"
   xmlns:cc="http://creativecommons.org/ns#"
   xmlns:rdf="http://www.w3.org/1999/02/22-rdf-syntax-ns#"
   xmlns:svg="http://www.w3.org/2000/svg"
   xmlns="http://www.w3.org/2000/svg"
   xmlns:xlink="http://www.w3.org/1999/xlink"
   xmlns:sodipodi="http://sodipodi.sourceforge.net/DTD/sodipodi-0.dtd"
   xmlns:inkscape="http://www.inkscape.org/namespaces/inkscape"
   viewBox="0 0 48 48"
   version="1.1"
   id="svg32"
   sodipodi:docname="Web Development.svg"
   inkscape:version="0.92.2 5c3e80d, 2017-08-06">
  <metadata
     id="metadata36">
    <rdf:RDF>
      <cc:Work
         rdf:about="">
        <dc:format>image/svg+xml</dc:format>
        <dc:type
           rdf:resource="http://purl.org/dc/dcmitype/StillImage" />
      </cc:Work>
    </rdf:RDF>
  </metadata>
  <sodipodi:namedview
     pagecolor="#ffffff"
     bordercolor="#666666"
     borderopacity="1"
     objecttolerance="10"
     gridtolerance="10"
     guidetolerance="10"
     inkscape:pageopacity="0"
     inkscape:pageshadow="2"
     inkscape:window-width="1366"
     inkscape:window-height="743"
     id="namedview34"
     showgrid="false"
     inkscape:zoom="11.679634"
     inkscape:cx="16.009727"
     inkscape:cy="20.263219"
     inkscape:window-x="0"
     inkscape:window-y="0"
     inkscape:window-maximized="1"
     inkscape:current-layer="g28" />
  <defs
     id="defs18">
    <linearGradient
       y1="545.8"
       x2="0"
       y2="517.8"
       gradientUnits="userSpaceOnUse"
       id="linearGradient6">
      <stop
         stop-color="#3889e9"
         id="stop2" />
      <stop
         offset="1"
         stop-color="#5ea5fb"
         id="stop4" />
    </linearGradient>
    <linearGradient
       id="0"
       gradientUnits="userSpaceOnUse"
       y1="544.79999"
       x2="0"
       y2="517.79999"
       xlink:href="#1">
      <stop
         stop-color="#373a3d"
         id="stop8" />
      <stop
         offset="1"
         stop-color="#727273"
         id="stop10" />
    </linearGradient>
    <linearGradient
       id="1"
       y1="542.2"
       x2="0"
       y2="526.2"
       gradientUnits="userSpaceOnUse">
      <stop
         stop-color="#d0d0d0"
         id="stop13" />
      <stop
         offset="1"
         stop-color="#f1eeee"
         id="stop15" />
    </linearGradient>
  </defs>
  <g
     transform="matrix(1.71418,0,0,1.71418,-682.31,-892.62)"
     id="g30"
     style="fill:url(#1)">
    <circle
       r="14"
       cy="531.79999"
       cx="400.57001"
       id="circle20"
       transform="translate(11.466,2.903)"
       style="display:inline;fill:#0995a7;fill-opacity:1" />
    <circle
       cx="400.57001"
       cy="531.79999"
       r="14"
       transform="translate(11.466,2.903)"
       id="circle22"
       style="display:inline;fill:#92bced;fill-opacity:0.4896266" />
    <g
       id="g28"
       style="fill:#ffffff">
      <path
         d="m 400.54,517.03 c -1.862,0 -3.634,0.355 -5.272,0.979 -0.119,0.109 -0.274,0.194 -0.396,0.183 -0.017,-0.002 -0.033,-0.012 -0.051,-0.019 -0.807,0.338 -1.573,0.752 -2.299,1.221 0.094,0.153 0.122,0.324 -0.072,0.407 -0.033,0.013 -0.443,0.056 -0.587,0.053 -2.065,1.501 -3.722,3.519 -4.781,5.875 0.017,-0.003 0.032,-0.001 0.05,-0.011 0.161,-0.003 0.392,0.043 0.546,0.076 0.142,0.029 0.257,0.125 0.381,0.134 0.35,0.027 0.434,-0.246 0.719,-0.398 0.295,0.041 0.491,-0.05 0.757,-0.021 0.182,0.021 0.313,0.214 0.454,0.225 0.119,0.012 0.224,-0.112 0.339,-0.094 0.112,0.018 0.305,0.261 0.323,0.398 0.024,0.17 -0.125,0.323 -0.076,0.51 0.178,0.182 0.502,0.218 0.757,0.323 0.166,-0.137 0.022,-0.39 0,-0.588 -0.003,-0.087 0.012,-0.165 0,-0.245 -0.015,-0.136 -0.073,-0.261 -0.074,-0.378 -0.003,-0.539 0.435,-0.791 0.796,-1 0.156,-0.093 0.28,-0.255 0.415,-0.323 0.192,-0.096 0.334,-0.118 0.493,-0.208 0.287,-0.161 0.533,-0.29 0.757,-0.473 0.103,-0.244 0.001,-0.572 0.019,-0.813 0.104,-0.063 0.193,0.027 0.303,0.019 0.173,-0.036 0.187,-0.28 0.285,-0.378 0.057,-0.056 0.213,-0.096 0.284,-0.151 0.172,-0.135 0.229,-0.34 0.379,-0.398 0.054,-0.022 0.179,-0.015 0.264,-0.038 0.112,-0.03 0.272,-0.162 0.454,-0.225 0.119,-0.041 0.391,-0.05 0.437,-0.095 0.056,-0.057 -1e-4,-0.217 0.019,-0.303 0.092,-0.427 0.735,-0.518 1.116,-0.662 0.267,-0.101 0.54,-0.286 0.833,-0.229 -0.058,0.203 -0.33,0.131 -0.284,0.378 0.064,0.342 0.522,-0.098 0.643,-0.149 0.231,-0.097 0.627,-0.157 0.93,-0.267 0.266,-0.097 0.742,-0.245 0.492,-0.549 -0.209,-0.012 -0.31,0.245 -0.492,0.323 -0.126,0.021 -0.101,-0.105 -0.209,-0.115 -0.102,-0.012 -0.159,0.094 -0.264,0.076 -0.104,-0.017 -0.25,-0.181 -0.267,-0.303 -0.041,-0.316 0.267,-0.446 0.398,-0.682 -0.087,-0.286 -0.482,-0.058 -0.721,-0.17 0.024,-0.17 0.199,-0.288 0.398,-0.32 0.163,-0.027 0.529,-0.013 0.626,0.073 0.056,0.048 0.004,0.167 0.095,0.247 0.096,0.087 0.215,0.078 0.34,0.058 0.045,-0.216 -0.28,-0.162 -0.245,-0.304 0.256,-0.167 0.672,-0.03 0.985,-0.076 0.18,-0.027 0.369,-0.154 0.529,-0.244 0.152,-0.087 0.349,-0.237 0.51,-0.095 0.043,0.155 -0.14,0.206 -0.226,0.283 -0.29,0.258 -0.588,0.553 -0.813,0.852 0.138,0.135 0.389,0.067 0.623,0.095 0.091,0.012 0.206,0.039 0.303,0.057 0.113,0.021 0.233,0.014 0.321,0.037 0.159,0.039 0.202,0.209 0.359,0.209 0.259,0 0.262,-0.281 0.115,-0.456 0.046,-0.179 0.119,-0.271 0.057,-0.396 -0.117,-0.233 -0.545,-0.012 -0.567,-0.303 -0.013,-0.189 0.158,-0.18 0.226,-0.321 -0.031,-0.365 0.299,-0.391 0.264,-0.718 -0.015,-0.137 -0.131,-0.139 -0.226,-0.267 -0.049,-0.063 -0.072,-0.184 -0.128,-0.238 -0.442,-0.038 -0.888,-0.063 -1.341,-0.063 z m -7.618,2.979 h 0.002 c 0.088,0.012 0.195,0.107 0.301,0.115 0.101,0.003 0.184,-0.056 0.247,-0.038 0.158,0.041 0.225,0.281 0.076,0.398 -0.124,0.015 -0.172,-0.054 -0.265,-0.038 -0.257,0.043 -0.356,0.547 -0.548,0.531 -0.181,-0.014 -0.279,-0.457 -0.095,-0.588 0.012,-0.115 -0.084,-0.133 -0.078,-0.247 0.055,-0.07 0.21,-0.145 0.36,-0.133 m -0.852,0.059 c 0.053,0.002 0.092,0.014 0.112,0.037 -0.025,0.202 -0.183,0.189 -0.339,0.283 -0.269,0.162 -0.425,0.41 -0.51,0.757 -0.025,0.101 -0.29,0.368 -0.418,0.342 -0.3,-0.063 0.083,-0.617 0.151,-0.701 0.076,-0.093 0.177,-0.175 0.267,-0.283 0.087,-0.104 0.143,-0.245 0.226,-0.303 0.091,-0.063 0.352,-0.139 0.51,-0.133 m 2.24,0.681 c 0.096,0.002 0.183,0.018 0.222,0.057 -0.062,0.25 -0.6,0.184 -0.797,0.093 0.012,-0.094 0.16,-0.12 0.284,-0.133 0.087,-0.003 0.195,-0.021 0.291,-0.018 m -1.225,0.461 c 0.064,-0.002 0.129,0.012 0.196,0.03 -0.174,0.146 -0.363,0.228 -0.662,0.323 -0.144,0.045 -0.392,0.101 -0.417,-0.059 -0.03,-0.197 0.21,-0.151 0.342,-0.169 0.165,-0.023 0.347,-0.119 0.541,-0.125 m 18.799,1.122 c -0.023,0.054 -0.038,0.107 -0.036,0.159 0.012,0.091 0.112,0.179 0.134,0.303 0.012,0.066 -0.031,0.207 0,0.267 0.091,0.177 0.33,0.05 0.5,0.059 -0.194,-0.267 -0.387,-0.534 -0.598,-0.787 m 0.967,1.302 c -0.027,0.13 -0.116,0.301 -0.187,0.409 -0.165,0.251 -0.389,0.263 -0.626,0.396 -0.197,0.112 -0.282,0.299 -0.398,0.493 -0.125,0.21 -0.203,0.337 -0.151,0.642 -0.169,0.336 -0.425,0.541 -0.776,0.701 -0.103,0.047 -0.245,0.064 -0.34,0.133 -0.075,0.055 -0.119,0.201 -0.226,0.321 -0.133,0.148 -0.272,0.21 -0.342,0.323 -0.054,0.087 -0.072,0.261 -0.133,0.378 -0.081,0.159 -0.253,0.237 -0.359,0.398 -0.048,0.074 -0.081,0.225 -0.134,0.323 -0.12,0.218 -0.325,0.375 -0.303,0.567 0.022,0.185 0.232,0.218 0.247,0.379 0.003,0.091 -0.06,0.147 -0.057,0.247 0.003,0.145 0.101,0.247 0.112,0.359 0.028,0.281 -0.095,0.393 -0.148,0.585 -0.025,0.092 -0.014,0.195 -0.038,0.267 -0.047,0.141 -0.243,0.268 -0.247,0.434 -0.002,0.118 0.121,0.213 0.131,0.379 0.003,0.115 -0.057,0.237 -0.036,0.342 0.04,0.206 0.408,0.445 0.568,0.605 0.214,0.214 0.494,0.38 0.587,0.606 0.077,0.192 0.077,0.441 0.226,0.585 0.11,0.107 0.294,0.173 0.435,0.284 0.132,0.103 0.276,0.193 0.417,0.303 0.23,0.18 0.579,0.54 0.946,0.512 0.192,-0.013 0.388,-0.17 0.606,-0.209 0.224,-0.04 0.514,-0.061 0.74,-0.037 0.173,0.017 0.351,0.121 0.531,0.112 0.19,-0.012 0.407,-0.152 0.623,-0.246 0.173,-0.075 0.386,-0.159 0.62,-0.221 0.107,-0.72 0.164,-1.458 0.164,-2.209 0,-3.02 -0.904,-5.825 -2.451,-8.16 m -24.417,4.961 c -0.314,0.018 -0.52,0.032 -0.699,0.112 -0.41,0.186 -0.33,0.74 -0.74,0.871 -0.141,0.045 -0.336,0.048 -0.491,0.076 -0.135,0.025 -0.298,0.098 -0.437,0.095 -0.038,0 -0.093,-0.029 -0.141,-0.044 -0.036,0.259 -0.066,0.522 -0.09,0.786 0.389,0.074 0.59,0.591 0.934,0.761 0.094,0.047 0.217,0.05 0.339,0.076 0.098,0.022 0.172,0.063 0.267,0.095 0.2,0.068 0.445,0.06 0.606,0.131 0.241,0.107 0.418,0.561 0.626,0.682 0.012,0.122 -0.024,0.287 0.019,0.378 0.098,0.133 0.236,0.103 0.398,0.19 0.193,0.104 0.252,0.373 0.435,0.456 0.063,0.028 0.222,0.024 0.321,0.055 0.251,0.076 0.333,0.366 0.548,0.303 0.141,-0.041 0.13,-0.187 0.153,-0.322 0.093,-0.101 0.195,-0.261 0.34,-0.264 0.235,-0.012 0.256,0.243 0.342,0.471 0.049,0.129 0.175,0.242 0.208,0.378 0.059,0.235 0.029,0.939 -0.021,1.08 -0.059,0.172 -0.293,0.246 -0.437,0.437 -0.068,0.09 -0.1,0.221 -0.151,0.284 -0.093,0.113 -0.23,0.142 -0.3,0.247 -0.039,0.059 -0.077,0.185 -0.115,0.264 -0.114,0.241 -0.266,0.412 -0.17,0.701 0.04,0.119 0.226,0.199 0.226,0.339 1e-4,0.165 -0.351,0.312 -0.378,0.493 -0.021,0.134 0.109,0.374 0.151,0.549 0.031,0.132 0.281,0.215 0.359,0.303 0.133,0.149 0.239,0.36 0.36,0.548 0.24,0.369 0.428,0.818 0.662,1.175 0.123,0.187 0.297,0.355 0.379,0.549 0.042,0.098 0.036,0.215 0.075,0.303 0.135,0.305 0.733,0.624 1.041,0.776 0.144,0.07 0.304,0.095 0.437,0.169 0.201,0.112 0.598,0.412 0.699,0.588 0.09,0.158 0.146,0.543 0.19,0.794 0.059,0.332 10e-5,0.587 0.019,0.947 0.012,0.195 0.074,0.39 0.076,0.585 1e-4,0.068 -0.036,0.119 -0.039,0.189 0,0.011 0.004,0.024 0.004,0.036 1.859,0.841 3.919,1.321 6.1,1.321 0.394,0 0.783,-0.021 1.169,-0.051 0.017,-0.029 0.032,-0.059 0.054,-0.087 0.089,-0.117 0.168,-0.219 0.226,-0.322 0.056,-0.346 -0.138,-0.587 -0.057,-0.889 0.091,-0.34 0.56,-0.547 0.89,-0.701 0.113,-0.053 0.229,-0.138 0.321,-0.17 0.228,-0.079 0.513,-0.036 0.721,-0.112 0.355,-0.13 0.392,-0.51 0.567,-0.833 0.083,-0.153 0.191,-0.306 0.208,-0.415 0.014,-0.098 -0.036,-0.19 -0.021,-0.306 0.017,-0.114 0.12,-0.213 0.151,-0.339 0.041,-0.164 0.059,-0.404 0.059,-0.587 0,-0.15 -0.07,-0.281 -0.075,-0.417 -0.025,-0.491 0.177,-0.546 0.359,-0.813 0.091,-0.133 0.125,-0.284 0.189,-0.379 0.305,-0.455 0.834,-0.675 0.796,-1.362 -0.012,-0.228 -0.156,-0.742 -0.323,-0.815 -0.096,-0.041 -0.316,-0.003 -0.454,-0.057 -0.447,-0.167 -0.71,-0.721 -1.174,-0.757 -0.099,-0.012 -0.19,0.04 -0.301,0.038 -0.183,-0.012 -0.46,-0.128 -0.663,-0.151 -0.129,-0.013 -0.302,0.038 -0.379,0 -0.118,-0.058 -0.13,-0.275 -0.226,-0.34 -0.076,-0.053 -0.225,-0.07 -0.34,-0.115 -0.186,-0.071 -0.334,-0.155 -0.549,-0.17 -0.066,-0.003 -0.149,0.032 -0.226,0.021 -0.119,-0.021 -0.213,-0.161 -0.323,-0.228 -0.138,-0.084 -0.265,-0.124 -0.322,-0.244 0.124,-0.408 -0.219,-0.521 -0.303,-0.757 -0.04,-0.11 -0.022,-0.243 -0.057,-0.342 -0.05,-0.141 -0.189,-0.223 -0.342,-0.34 -0.274,-0.211 -0.517,-0.409 -0.908,-0.457 -0.172,-0.022 -0.343,0.052 -0.551,0.038 -0.22,-0.013 -0.497,-0.207 -0.662,-0.395 -0.16,-0.184 -0.238,-0.349 -0.378,-0.437 -0.132,-0.085 -0.308,-0.083 -0.398,-0.169 -0.04,-0.037 -0.033,-0.102 -0.076,-0.19 -0.066,-0.138 -0.178,-0.214 -0.095,-0.379 -0.151,-0.078 -0.155,0.144 -0.32,0.115 -0.147,-0.209 -0.271,-0.308 -0.606,-0.247 -0.153,0.028 -0.238,0.222 -0.417,0.226 -0.146,0.012 -0.261,-0.163 -0.454,-0.19 -0.146,-0.021 -0.311,0.039 -0.415,0.02 -0.162,-0.032 -0.211,-0.167 -0.359,-0.264 -0.108,-0.071 -0.318,-0.192 -0.379,-0.19 -0.19,0.012 -0.326,0.404 -0.588,0.265 -0.128,-0.162 0.208,-0.247 0.057,-0.398 -0.115,-0.115 -0.211,0.053 -0.303,0.115 -0.105,0.072 -0.204,0.144 -0.32,0.187 -0.26,0.097 -0.423,0.047 -0.626,0.151 -0.188,0.097 -0.196,0.26 -0.303,0.454 -0.087,0.159 -0.286,0.39 -0.417,0.399 -0.159,0.012 -0.31,-0.222 -0.454,-0.284 -0.433,-0.188 -0.643,0.167 -1,0.172 -0.334,0.012 -0.811,-0.539 -0.794,-0.853 0.003,-0.192 0.11,-0.482 0.133,-0.719 0.021,-0.189 0.149,-0.302 0.151,-0.474 0.003,-0.23 -0.305,-0.407 -0.454,-0.434 -0.354,-0.065 -0.845,0.142 -1.25,-0.021 -0.077,-0.128 0.091,-0.217 0.134,-0.342 0.025,-0.071 10e-4,-0.166 0.036,-0.244 0.045,-0.121 0.171,-0.214 0.228,-0.342 0.042,-0.097 0.053,-0.238 0.095,-0.359 0.05,-0.138 0.141,-0.226 0.151,-0.323 0.013,-0.128 -0.034,-0.275 -0.134,-0.359 z m 5.06,4.01 c 0.128,0.012 0.144,0.277 0.013,0.298 -0.142,0.022 -0.213,-0.222 -0.076,-0.286 0.023,-0.012 0.045,-0.012 0.063,-0.011 v -0.002"
         transform="matrix(0.94944,0,0,0.94944,31.706,29.821)"
         id="path24"
         style="fill:#c724a2;fill-opacity:0.73029047"
         inkscape:connector-curvature="0" />
      <path
         d="m 410.95,526.9 0.111,0.023 c 1.287,-0.427 4.177,1.256 3.533,2.756 -0.163,0.236 -0.135,0.654 0.061,0.917 l -3.613,3.608 c -0.202,-0.202 -0.652,-0.198 -0.859,0 l -5.975,5.725 c -0.545,0.522 -0.116,0.965 0.114,1.199 l 1.072,1.07 c 0.234,0.233 0.853,0.547 1.293,0.082 l 5.639,-5.933 c 0.197,-0.206 0.198,-0.65 0,-0.853 0,0 0.003,-0.003 0,-0.003 l 3.628,-3.62 c 0.383,0.345 0.745,0.374 1.088,0.281 0.663,-0.181 1.032,0.466 1.429,0.939 l -0.179,0.176 c -0.265,0.268 -0.24,0.718 0.057,1.015 0.297,0.297 0.75,0.321 1.015,0.057 l 1.185,-1.182 c 0.265,-0.267 0.24,-0.718 -0.058,-1.013 -0.268,-0.269 -0.657,-0.304 -0.928,-0.112 -0.813,-0.91 -0.386,-1.047 -1.458,-2.231 l -2.01,-2.048 c -1.446,-1.416 -3.325,-1.414 -5.145,-0.852"
         id="path26"
         inkscape:connector-curvature="0"
         style="fill-opacity:0.85500004" />
    </g>
  </g>
</svg>
