<svg xmlns="http://www.w3.org/2000/svg" xmlns:xlink="http://www.w3.org/1999/xlink" viewBox="4 4 40 40" version="1.1" width="36" height="36">
<g id="surface1">
<path style=" fill:#EF5350;" d="M 16.925781 21.59375 L 16.539063 13.730469 L 24.046875 16.527344 L 24.046875 23.789063 Z "/>
<path style=" fill:#EF5350;" d="M 28.351563 29.570313 L 28.351563 36.820313 L 35.523438 38.894531 L 35.523438 31.871094 Z "/>
<path style=" fill:#EF9A9A;" d="M 24.046875 35.976563 L 19.636719 29.570313 L 24.046875 23.789063 L 28.351563 29.570313 Z "/>
<path style=" fill:#EF9A9A;" d="M 19.636719 10.710938 L 23.992188 5 L 28.351563 10.964844 L 24.046875 16.523438 Z "/>
<path style=" fill:#EF9A9A;" d="M 31.257813 21.59375 L 35.65625 15.832031 L 42.601563 17.992188 L 38.417969 23.789063 Z "/>
<path style=" fill:#D32F2F;" d="M 24.046875 23.789063 L 31.257813 21.59375 L 36.191406 27.585938 L 28.351563 29.570313 Z "/>
<path style=" fill:#D32F2F;" d="M 16.925781 21.59375 L 12.386719 15.664063 L 5.179688 18.03125 L 9.492188 23.789063 Z "/>
<path style=" fill:#D32F2F;" d="M 24.046875 16.523438 L 31.449219 13.632813 L 35.523438 8.34375 L 28.351563 10.964844 Z "/>
<path style=" fill:#B71C1C;" d="M 24.046875 23.789063 L 24.046875 16.523438 L 31.449219 13.632813 L 31.257813 21.59375 Z "/>
<path style=" fill:#B71C1C;" d="M 19.636719 29.570313 L 19.636719 36.863281 L 12.386719 38.894531 L 12.386719 31.910156 Z "/>
<path style=" fill:#B71C1C;" d="M 9.492188 23.789063 L 16.925781 21.59375 L 11.773438 27.210938 L 5 29.570313 Z "/>
<path style=" fill:#660E0E;" d="M 16.925781 21.59375 L 12.386719 15.664063 L 12.207031 8.34375 L 16.539063 13.730469 Z "/>
<path style=" fill:#660E0E;" d="M 19.636719 29.570313 L 19.636719 36.863281 L 24.046875 43 L 24.046875 35.976563 Z "/>
<path style=" fill:#660E0E;" d="M 28.351563 29.570313 L 36.191406 27.585938 L 43 29.570313 L 35.523438 31.871094 Z "/>
<path style=" fill:#F44336;" d="M 31.257813 21.59375 L 35.65625 15.832031 L 35.523438 8.34375 L 31.449219 13.632813 Z "/>
<path style=" fill:#F44336;" d="M 16.539063 13.730469 L 24.046875 16.523438 L 19.636719 10.710938 L 12.207031 8.34375 Z "/>
<path style=" fill:#F44336;" d="M 28.351563 29.570313 L 28.351563 36.820313 L 24.046875 43 L 24.046875 35.976563 Z "/>
<path style=" fill:#F44336;" d="M 31.257813 21.59375 L 36.191406 27.585938 L 43 29.570313 L 38.417969 23.789063 Z "/>
<path style=" fill:#8C1313;" d="M 12.386719 31.910156 L 19.636719 29.570313 L 11.773438 27.210938 L 5 29.570313 Z "/>
<path style=" fill:#FFCDD2;" d="M 24.046875 23.789063 L 19.636719 29.570313 L 11.773438 27.210938 L 16.925781 21.59375 Z "/>
</g>
</svg>